<svg xmlns="http://www.w3.org/2000/svg" viewBox="0 0 95.64 84.52"><defs><style>.cls-1{fill:none;stroke:#FFF;stroke-miterlimit:10;stroke-width:4.5px;}</style></defs><g id="Layer_2" data-name="Layer 2"><g id="original"><line class="cls-1" x1="66.28" y1="7.8" x2="47.82" y2="19.25"/><polyline class="cls-1" points="54.58 82.86 79.42 56.17 94.25 50.03"/><polyline class="cls-1" points="79.42 56.17 82.9 22.73 66.28 7.79"/><polygon class="cls-1" points="47.82 83.27 18.98 81.53 1.39 50.03 12.74 22.73 8.65 7.79 12.54 1.25 22.86 1.25 29.36 7.79 47.82 7.79 66.28 7.79 72.77 1.25 83.1 1.25 86.99 7.79 82.9 22.73 94.25 50.03 76.66 81.53 47.82 83.27"/><polyline class="cls-1" points="41.06 82.86 16.22 56.17 1.39 50.03"/><polyline class="cls-1" points="16.22 56.17 12.74 22.73 29.36 7.79"/><polyline class="cls-1" points="29.36 7.79 47.82 19.25 47.82 40.52 60.91 46.97 60.91 71.1 60.91 76.06"/><polyline class="cls-1" points="47.82 62.72 54.58 62.72 47.82 67.63"/><polyline class="cls-1" points="47.82 40.52 34.73 46.97 34.73 71.1 34.73 76.06"/><polyline class="cls-1" points="34.73 71.1 47.82 75.5 60.91 71.1"/><polyline class="cls-1" points="47.82 75.5 47.82 67.63 41.06 62.72 47.82 62.72"/><polygon class="cls-1" points="57.05 32.82 71.89 28.59 59.07 38.68 57.05 32.82"/><polygon class="cls-1" points="38.59 32.82 23.75 28.59 36.57 38.68 38.59 32.82"/><circle class="cls-1" cx="17.75" cy="9.09" r="3.1"/><circle class="cls-1" cx="77.51" cy="9.09" r="3.1"/></g></g></svg>